<?xml version="1.0" encoding="utf-8"?>
<!-- Generator: Adobe Illustrator 16.0.0, SVG Export Plug-In . SVG Version: 6.00 Build 0)  -->
<!DOCTYPE svg PUBLIC "-//W3C//DTD SVG 1.1//EN" "http://www.w3.org/Graphics/SVG/1.1/DTD/svg11.dtd">
<svg version="1.1" id="Ebene_1" xmlns="http://www.w3.org/2000/svg" xmlns:xlink="http://www.w3.org/1999/xlink" x="0px" y="0px"
	 width="137.417px" height="120.188px" viewBox="0 0 137.417 120.188" enable-background="new 0 0 137.417 120.188"
	 xml:space="preserve">
<path fill-rule="evenodd" clip-rule="evenodd" fill="#43C1AD" d="M57.002,120.085c-17.333,0.002-34.667-0.123-51.997,0.098
	c-3.938,0.05-5.12-0.988-4.996-4.958c0.255-8.244,0.033-8.166,8.165-8.154c29.666,0.044,59.332-0.042,88.997,0.111
	c3.788,0.021,4.771-1.115,4.724-4.809c-0.197-15.164-0.142-51.332-0.039-66.498c0.023-3.556-8.258-6.729-8.274-10.288
	c-0.01-1.947,1.862-1.622,3.088-1.522c3.815,0.312,5.237-1.141,5.238-5.138c0.003-10.217,3.148-15.036,10.746-17.645
	c8.855-3.039,17.898-0.559,23.603,6.199c1.587,1.879,1.657,2.954-0.48,4.216c-1.282,0.757-2.506,1.68-3.58,2.711
	c-2.467,2.365-4.562,3.193-7.456,0.206c-2.058-2.123-5.183-2.478-7.814-0.511c-2.922,2.183-1.65,5.497-1.773,8.384
	c-0.057,1.329,1.09,1.455,2.131,1.462c1.333,0.01,2.666,0.004,4,0.009c7.924,0.023,7.652,0.034,7.939,7.896
	c0.157,4.298-1.287,5.261-5.344,5.178c-10.025-0.205-8.854-0.864-8.884,8.726c-0.071,22.999-0.161,46.001,0.094,68.998
	c0.051,4.545-1.296,5.491-5.588,5.431C92.003,119.938,74.502,120.083,57.002,120.085z"/>
<path fill-rule="evenodd" clip-rule="evenodd" fill="#43C1AD" d="M70.161,6.187c-0.104-3.562,0.644-4.988,4.6-4.908
	c9.157,0.187,9.287-0.032,9.135,9.284c-0.275,16.81,0.82,33.637-0.559,50.431c-1.062,12.949-6.857,20.608-17.49,23.327
	c-11.735,3-24.751-1.906-31.193-11.726c-0.655-0.999-1.529-1.865-0.134-2.926c2.651-2.015,5.248-4.104,7.945-6.053
	c1.923-1.39,2.58,0.657,3.547,1.576c3.565,3.386,7.259,6.364,12.621,6.1c5.684-0.281,9.243-3.132,10.573-8.735
	c0.307-1.294,0.81-14.231,0.805-31.387C70.087,31.17,70.305,16.325,70.161,6.187z"/>
</svg>
